<?xml version="1.0" encoding="utf-8"?>
<!-- Generator: Adobe Illustrator 21.0.0, SVG Export Plug-In . SVG Version: 6.00 Build 0)  -->
<svg version="1.1" id="Capa_1" xmlns="http://www.w3.org/2000/svg" xmlns:xlink="http://www.w3.org/1999/xlink" x="0px" y="0px"
	 viewBox="0 0 489.4 489.4" style="enable-background:new 0 0 489.4 489.4;" xml:space="preserve">
<g>
	<g>
		<path d="M328.8,274.9h-54.2c-14.9,0-26.9,12-26.9,26.9v41.7c0,14.9,12,26.9,26.9,26.9h54.2c14.9,0,26.9-12,26.9-26.9v-41.6
			C355.7,287,343.7,274.9,328.8,274.9z M336.1,343.5c0,4.1-3.4,7.4-7.4,7.4h-54.2c-4.1,0-7.4-3.4-7.4-7.4v-41.6
			c0-4.1,3.4-7.4,7.4-7.4h54.2c4.1,0,7.4,3.4,7.4,7.4V343.5z"/>
		<path d="M444.4,199.3c0-1.7-0.4-3.4-1.3-4.9L383.8,90c-1.7-3.1-5-5-8.4-5H114.1c-3.5,0-6.8,1.9-8.4,5L46.3,194.4
			c-0.8,1.5-1.3,3.1-1.3,4.9c0,23.4,14.1,43.5,34.3,52.4V424c0,5.4,4.4,9.8,9.8,9.8h54.1c0.1,0,0.2,0,0.2,0h75.9c0.1,0,0.2,0,0.2,0
			h180.7c5.4,0,9.8-4.4,9.8-9.8V252.9c0-0.4,0-0.7-0.1-1.1C430.2,242.9,444.4,222.8,444.4,199.3z M119.8,104.7h249.7l46.4,81.7H73.5
			L119.8,104.7z M329.2,205.9c-3.1,17.6-18.6,31-37,31c-18.6,0-34-13.4-37-31H329.2z M234.4,205.9c-3.1,17.6-18.6,31-37,31
			s-34-13.4-37.1-31H234.4z M65.2,205.9h74.2c-3.1,17.6-18.6,31-37.1,31C83.7,237,68.3,223.5,65.2,205.9z M209.6,414.2h-56.3V308.5
			c0-7.7,6.2-13.9,13.9-13.9h28.5c7.7,0,13.9,6.2,13.9,13.9V414.2L209.6,414.2z M390.5,414.2H229.1V308.5c0-18.5-15-33.6-33.6-33.6
			H167c-18.5,0-33.6,15-33.6,33.6v105.8H98.8V256.6c1.2,0.1,2.3,0.1,3.4,0.1c19.7,0,37.2-10,47.5-25.3
			c10.2,15.3,27.7,25.3,47.5,25.3s37.1-10,47.5-25.3c10.2,15.3,27.7,25.3,47.4,25.3c19.7,0,37.1-10,47.4-25.3
			c10.2,15.3,27.7,25.3,47.5,25.3c1.2,0,2.2-0.1,3.4-0.1v157.6H390.5z M387.1,237c-18.6,0-34-13.4-37-31h74.2
			C421.1,223.5,405.7,237,387.1,237z"/>
	</g>
</g>
</svg>
