<?xml version="1.0" encoding="utf-8"?>
<!-- Generator: Adobe Illustrator 21.0.0, SVG Export Plug-In . SVG Version: 6.00 Build 0)  -->
<svg version="1.1" id="Capa_1" xmlns="http://www.w3.org/2000/svg" xmlns:xlink="http://www.w3.org/1999/xlink" x="0px" y="0px"
	 viewBox="0 0 100 100" style="enable-background:new 0 0 100 100;" xml:space="preserve">
<path d="M19.6,21.8l-1.4-8.3h-5c-0.7-2.9-3.3-5-6.4-5c-3.7,0-6.6,3-6.6,6.6s3,6.6,6.6,6.6c3.1,0,5.7-2.1,6.4-5h2.1l0.8,5h-0.1
	L24.7,65c-4.1,0.3-7.5,3.5-7.9,7.4c-0.2,2.3,0.5,4.7,2.1,6.4c1.6,1.7,3.8,2.7,6.2,2.7h3.3c0,5.5,4.5,10,10,10s10-4.5,10-10h18.3
	c0,5.5,4.5,10,10,10c5.5,0,10-4.5,10-10h6.6c0.9,0,1.7-0.7,1.7-1.7c0-0.9-0.7-1.7-1.7-1.7h-7.2c-1.4-3.9-5.1-6.6-9.4-6.6
	c-4.3,0-8,2.8-9.4,6.6H47.8c-1.4-3.9-5.1-6.6-9.4-6.6s-8,2.8-9.4,6.6h-3.9c-1.4,0-2.7-0.6-3.7-1.6c-1-1.1-1.4-2.4-1.3-3.8
	c0.3-2.5,2.6-4.5,5.3-4.5h1.3c0,0,0,0,0.1,0h64.7c4.6,0,8.3-3.7,8.3-8.3V21.8H19.6z M6.8,18.5c-1.8,0-3.3-1.5-3.3-3.3
	s1.5-3.3,3.3-3.3s3.3,1.5,3.3,3.3S8.7,18.5,6.8,18.5z M76.6,74.9c3.7,0,6.6,3,6.6,6.6s-3,6.6-6.6,6.6c-3.7,0-6.6-3-6.6-6.6
	S72.9,74.9,76.6,74.9z M38.4,74.9c3.7,0,6.6,3,6.6,6.6s-3,6.6-6.6,6.6c-3.7,0-6.6-3-6.6-6.6S34.7,74.9,38.4,74.9z M96.5,60
	c0,2.7-2.2,5-5,5H28.1l-7.9-39.8h76.3V60z"/>
</svg>
