<?xml version="1.0" encoding="utf-8"?>
<!-- Generator: Adobe Illustrator 21.0.0, SVG Export Plug-In . SVG Version: 6.00 Build 0)  -->
<svg version="1.1" id="Capa_1" xmlns="http://www.w3.org/2000/svg" xmlns:xlink="http://www.w3.org/1999/xlink" x="0px" y="0px"
	 viewBox="0 0 100 100" style="enable-background:new 0 0 100 100;" xml:space="preserve">
<g>
	<g>
		<path d="M77.3,30c12.8,0,22.5-5,22.5-11.6S90.1,6.8,77.3,6.8s-22.5,5-22.5,11.6C54.8,25,64.4,30,77.3,30z M77.3,11.7
			c10.7,0,17.5,3.9,17.5,6.6S88,25,77.3,25s-17.5-3.9-17.5-6.6S66.6,11.7,77.3,11.7z"/>
		<path d="M97.9,30.2c-1.3-0.5-2.7,0.2-3.2,1.5c-1.1,2.9-8,6-17.4,6c-9.1,0-16-2.9-17.3-5.8c-0.6-1.2-2.1-1.8-3.3-1.2
			s-1.8,2.1-1.2,3.3c2.4,5.2,11.2,8.6,21.8,8.6c5.1,0,10-0.8,13.9-2.4c4.3-1.7,7.1-4.1,8.2-6.9C99.8,32.1,99.2,30.7,97.9,30.2z"/>
		<path d="M97.9,42.9c-1.3-0.5-2.7,0.2-3.2,1.5c-1.1,2.9-8,6-17.4,6c-9.1,0-16-2.9-17.3-5.8c-0.6-1.2-2.1-1.8-3.3-1.2
			c-1.2,0.6-1.8,2.1-1.2,3.3c2.4,5.2,11.2,8.6,21.8,8.6c5.1,0,10-0.8,13.9-2.4c4.3-1.7,7.1-4.1,8.2-6.9
			C99.8,44.8,99.2,43.3,97.9,42.9z"/>
		<path d="M97.9,55.5c-1.3-0.5-2.7,0.2-3.2,1.5c-1.1,2.9-8,6-17.4,6c-9.1,0-16-2.9-17.3-5.8c-0.6-1.2-2.1-1.8-3.3-1.2
			c-1.2,0.6-1.8,2.1-1.2,3.3c2.4,5.2,11.2,8.6,21.8,8.6c5.1,0,10-0.8,13.9-2.4c4.3-1.7,7.1-4.1,8.2-6.9C99.8,57.4,99.2,56,97.9,55.5
			z"/>
		<path d="M97.9,68.2c-1.3-0.5-2.7,0.2-3.2,1.5c-1.1,2.9-8,6-17.4,6c-9.1,0-16-2.9-17.3-5.8c-0.6-1.2-2.1-1.8-3.3-1.2
			c-1.2,0.6-1.8,2.1-1.2,3.3c2.4,5.2,11.2,8.6,21.8,8.6c5.1,0,10-0.8,13.9-2.4c4.3-1.7,7.1-4.1,8.2-6.9
			C99.8,70.1,99.2,68.6,97.9,68.2z"/>
		<path d="M97.9,80.8c-1.3-0.5-2.7,0.2-3.2,1.5c-1.1,2.9-8,6-17.4,6c-9.1,0-16-2.9-17.3-5.8c-0.6-1.2-2.1-1.8-3.3-1.2
			c-1.2,0.6-1.8,2.1-1.2,3.3c2.4,5.2,11.2,8.6,21.8,8.6c5.1,0,10-0.8,13.9-2.4c4.3-1.7,7.1-4.1,8.2-6.9
			C99.8,82.7,99.2,81.3,97.9,80.8z"/>
		<path d="M43.3,55.5C42,55,40.6,55.7,40.1,57c-1.1,2.9-8,6-17.4,6c-9.1,0-16-2.9-17.3-5.8C4.8,56,3.3,55.4,2.1,56
			c-1.2,0.6-1.8,2.1-1.2,3.3c2.4,5.2,11.2,8.6,21.8,8.6c5.1,0,10-0.8,13.9-2.4c4.3-1.7,7.1-4.1,8.2-6.9C45.3,57.4,44.6,56,43.3,55.5
			z"/>
		<path d="M43.3,68.2c-1.3-0.5-2.7,0.2-3.2,1.5c-1.1,2.9-8,6-17.4,6c-9.1,0-16-2.9-17.3-5.8c-0.6-1.2-2.1-1.8-3.3-1.2
			c-1.2,0.6-1.8,2.1-1.2,3.3c2.4,5.2,11.2,8.6,21.8,8.6c5.1,0,10-0.8,13.9-2.4c4.3-1.7,7.1-4.1,8.2-6.9
			C45.3,70.1,44.6,68.6,43.3,68.2z"/>
		<path d="M43.3,80.8c-1.3-0.5-2.7,0.2-3.2,1.5c-1.1,2.9-8,6-17.4,6c-9.1,0-16-2.9-17.3-5.8c-0.6-1.2-2.1-1.8-3.3-1.2
			c-1.2,0.6-1.8,2.1-1.2,3.3c2.4,5.2,11.2,8.6,21.8,8.6c5.1,0,10-0.8,13.9-2.4c4.3-1.7,7.1-4.1,8.2-6.9
			C45.3,82.7,44.6,81.3,43.3,80.8z"/>
		<path d="M22.7,32.1c-12.8,0-22.5,5-22.5,11.6s9.7,11.6,22.5,11.6s22.5-5,22.5-11.6S35.6,32.1,22.7,32.1z M22.7,50.3
			c-10.7,0-17.5-3.9-17.5-6.6S12,37,22.7,37s17.5,3.9,17.5,6.6C40.3,46.4,33.4,50.3,22.7,50.3z"/>
	</g>
</g>
</svg>
