<?xml version="1.0" encoding="utf-8"?>
<!-- Generator: Adobe Illustrator 21.0.0, SVG Export Plug-In . SVG Version: 6.00 Build 0)  -->
<svg version="1.1" id="Capa_1" xmlns="http://www.w3.org/2000/svg" xmlns:xlink="http://www.w3.org/1999/xlink" x="0px" y="0px"
	 viewBox="0 0 100 100" style="enable-background:new 0 0 100 100;" xml:space="preserve">
<g>
	<path d="M100,25h-6.7v-3.3v-10V5c0-2.7-2.2-5-5-5h-6.7c-2.7,0-5,2.2-5,5v6.7v10V25H0v55h76.7v3.8l6.7,11.7v2.9
		c0,0.9,0.7,1.7,1.7,1.7s1.7-0.7,1.7-1.7v-2.9l6.7-11.7V80h6.7V25z M90,18.3H80V15h10V18.3z M80,5c0-0.9,0.7-1.6,1.6-1.6h6.7
		C89.3,3.3,90,4.1,90,5v6.7H80V5z M3.3,76.7V28.3h73.3v48.3H3.3z M85,91.6L81.2,85h7.6L85,91.6z M90,81.7H80V80V25v-3.3h10V25v55
		V81.7z M96.7,76.7h-3.3V28.3h3.3V76.7z"/>
	<path d="M65,43.3h-5c-0.9,0-1.7,0.7-1.7,1.7s0.7,1.7,1.7,1.7h5c0.9,0,1.7-0.7,1.7-1.7S65.9,43.3,65,43.3z"/>
	<path d="M35,40h5c0.9,0,1.7-0.7,1.7-1.7s-0.7-1.7-1.7-1.7h-5c-0.9,0-1.7,0.7-1.7,1.7S34.1,40,35,40z"/>
	<path d="M65,36.7H53.3c-0.9,0-1.7,0.7-1.7,1.7s0.7,1.7,1.7,1.7H65c0.9,0,1.7-0.7,1.7-1.7S65.9,36.7,65,36.7z"/>
	<path d="M46.7,40c0.4,0,0.9-0.2,1.2-0.5c0.3-0.3,0.5-0.8,0.5-1.2c0-0.4-0.2-0.9-0.5-1.2c-0.6-0.6-1.8-0.6-2.4,0
		c-0.3,0.3-0.5,0.8-0.5,1.2c0,0.4,0.2,0.9,0.5,1.2C45.8,39.8,46.2,40,46.7,40z"/>
	<path d="M40,45c0,0.9,0.7,1.7,1.7,1.7h11.7c0.9,0,1.7-0.7,1.7-1.7s-0.7-1.7-1.7-1.7H41.7C40.7,43.3,40,44.1,40,45z"/>
	<path d="M35,46.7c0.4,0,0.9-0.2,1.2-0.5c0.3-0.3,0.5-0.7,0.5-1.2c0-0.5-0.2-0.9-0.5-1.2c-0.6-0.6-1.7-0.6-2.4,0
		c-0.3,0.3-0.5,0.7-0.5,1.2c0,0.4,0.2,0.9,0.5,1.2C34.1,46.5,34.5,46.7,35,46.7z"/>
	<path d="M18.3,38.5v-1.8c0-0.9-0.7-1.7-1.7-1.7c-0.9,0-1.7,0.7-1.7,1.7v1.8c-1.8,0.4-3.5,1.3-4.7,2.8c-1,1.2-1.5,2.7-1.3,4.3
		c0.2,1.6,1,3.1,2.3,4.2l3.7,2.9v9.1c-1.9-0.7-3.3-2.5-3.3-4.7c0-0.9-0.7-1.7-1.7-1.7S8.3,56.1,8.3,57c0,4,2.9,7.4,6.7,8.2v1.5
		c0,0.9,0.7,1.7,1.7,1.7c0.9,0,1.7-0.7,1.7-1.7v-1.5c1.8-0.4,3.5-1.3,4.7-2.8c1-1.2,1.5-2.7,1.3-4.3c-0.2-1.6-1-3.1-2.3-4.1L18.3,51
		V42c1.9,0.7,3.3,2.5,3.3,4.7c0,0.9,0.7,1.7,1.7,1.7s1.7-0.7,1.7-1.7C25,42.6,22.1,39.3,18.3,38.5z M20,56.6c0.6,0.5,1,1.1,1,1.9
		c0.1,0.7-0.1,1.3-0.6,1.8c-0.6,0.7-1.3,1.2-2.2,1.5v-6.5L20,56.6z M13.3,47.1c-0.6-0.5-1-1.1-1-1.9c-0.1-0.7,0.1-1.3,0.6-1.8
		c0.6-0.7,1.3-1.2,2.2-1.5v6.5L13.3,47.1z"/>
	<path d="M40.2,55.7c-3.7,1.9-4.9,5.5-5.3,9.3c-0.7-0.6-1.4-1.2-2.1-1.7c-1.6-1.4-4,1-2.4,2.4c1.6,1.3,3.1,2.6,4.7,3.9
		c1.1,0.9,2.8,0.3,2.8-1.2c0.1-3.6,0.3-7.9,3.9-9.8C43.8,57.6,42.1,54.7,40.2,55.7z"/>
	<path d="M51.3,62.3c-2.3,0.5-4.9,3.5-6.6,0.2c-0.9-1.9-3.8-0.2-2.9,1.7c0.9,1.7,2.5,3,4.4,3.2c1,0.1,1.9,0,2.8-0.4
		c0.7-0.3,3.2-2.2,3.8-1.2c1,1.9,3.9,0.2,2.9-1.7C54.9,62.5,53.1,61.9,51.3,62.3z"/>
</g>
</svg>
