<?xml version="1.0" encoding="utf-8"?>
<!-- Generator: Adobe Illustrator 21.0.0, SVG Export Plug-In . SVG Version: 6.00 Build 0)  -->
<svg version="1.1" id="Layer_1" xmlns="http://www.w3.org/2000/svg" xmlns:xlink="http://www.w3.org/1999/xlink" x="0px" y="0px"
	 viewBox="0 0 100 100" style="enable-background:new 0 0 100 100;" xml:space="preserve">
<g>
	<g>
		<path d="M52.1,8.4V2.1C52.1,0.9,51.2,0,50,0s-2.1,0.9-2.1,2.1v6.3C21.3,9.5,0,31.4,0,58.3v0.5c3.6-4.5,9.1-7.5,15.3-7.5
			c7.5,0,14.1,4.3,17.3,10.6c2.9-5.7,8.6-9.7,15.2-10.4v38.1c0,5.8,4.7,10.4,10.4,10.4s10.4-4.7,10.4-10.4c0-1.2-0.9-2.1-2.1-2.1
			s-2.1,0.9-2.1,2.1c0,3.4-2.8,6.3-6.3,6.3c-3.4,0-6.3-2.8-6.3-6.3V51.4c6.7,0.7,12.3,4.8,15.2,10.4c3.2-6.3,9.8-10.6,17.3-10.6
			c6.2,0,11.8,2.9,15.3,7.5v-0.5C100,31.4,78.7,9.5,52.1,8.4z M84.7,47.2c-4.4,0-8.7,1.2-12.5,3.6c-1.8,1.1-3.4,2.5-4.9,4
			c-1.4-1.5-3.1-2.9-4.9-4c-3.7-2.3-8.1-3.6-12.5-3.6s-8.7,1.2-12.5,3.6c-1.8,1.1-3.4,2.5-4.9,4c-1.4-1.5-3.1-2.9-4.9-4
			c-3.7-2.3-8.1-3.6-12.5-3.6c-3.6,0-7.1,0.8-10.3,2.4c0.6-3.1,1.5-6.1,2.8-9c2.3-5.5,5.6-10.4,9.8-14.6c4.2-4.2,9.1-7.5,14.6-9.8
			c5.6-2.4,11.6-3.6,17.8-3.6c6.2,0,12.2,1.2,17.8,3.6c5.5,2.3,10.4,5.6,14.6,9.8c4.2,4.2,7.5,9.1,9.8,14.6c1.2,2.9,2.2,5.9,2.8,9
			C91.8,48,88.3,47.2,84.7,47.2z"/>
	</g>
</g>
</svg>
