<?xml version="1.0" encoding="utf-8"?>
<!-- Generator: Adobe Illustrator 21.0.0, SVG Export Plug-In . SVG Version: 6.00 Build 0)  -->
<svg version="1.1" id="Capa_1" xmlns="http://www.w3.org/2000/svg" xmlns:xlink="http://www.w3.org/1999/xlink" x="0px" y="0px"
	 viewBox="0 0 100 100" style="enable-background:new 0 0 100 100;" xml:space="preserve">
<g>
	<path d="M91.9,0H8.1c-3.3,0-6,2.7-6,6v83.7c0,3.3,2.7,6,6,6H13V98c0,1.1,0.9,2,2,2h11.7c1.1,0,2-0.9,2-2v-2.3h42.6V98
		c0,1.1,0.9,2,2,2H85c1.1,0,2-0.9,2-2v-2.3h4.8c3.3,0,6-2.7,6-6V6C97.9,2.7,95.2,0,91.9,0z M93.9,89.7c0,1.1-0.9,2-2,2H8.1
		c-1.1,0-2-0.9-2-2V6c0-1.1,0.9-2,2-2h83.7c1.1,0,2,0.9,2,2L93.9,89.7L93.9,89.7z M50.3,28.7C39.6,28.7,31,37.3,31,47.9
		c0,10.6,8.6,19.2,19.2,19.2s19.2-8.6,19.2-19.2C69.5,37.3,60.9,28.7,50.3,28.7z M63.7,39l-3.4,3.4c0.9,1.6,1.4,3.5,1.4,5.5
		c0,6.3-5.1,11.4-11.4,11.4c-6.3,0-11.4-5.1-11.4-11.4c0-6.3,5.1-11.4,11.4-11.4c2.8,0,5.4,1,7.4,2.7l3.1-3.1c0.8-0.8,2.1-0.8,2.8,0
		l0.1,0.1C64.5,36.9,64.5,38.2,63.7,39z"/>
</g>
</svg>
