<?xml version="1.0" encoding="utf-8"?>
<!-- Generator: Adobe Illustrator 21.0.0, SVG Export Plug-In . SVG Version: 6.00 Build 0)  -->
<svg version="1.1" id="Capa_1" xmlns="http://www.w3.org/2000/svg" xmlns:xlink="http://www.w3.org/1999/xlink" x="0px" y="0px"
	 viewBox="0 0 100 100" style="enable-background:new 0 0 100 100;" xml:space="preserve">
<g>
	<path d="M66.7,0h-3.3H51.7h-50v28.3v33.3V90h6.7v9.8l6.7-4.4l6.7,4.4V90h30h11.7h3.3c3.7,0,6.7-3,6.7-6.7V61.7V28.3V6.7
		C73.3,3,70.3,0,66.7,0z M5,3.3h46.7v25H5V3.3z M51.7,58.3H5V31.7h46.7V58.3z M18.3,93.6L15,91.3l-3.3,2.2V90h6.7V93.6z M21.7,86.7
		H8.3H5v-25h46.7v25H21.7z M55,86.7v-25V28.3v-25h5v25v33.3v25H55z M63.3,31.7H70v26.7h-6.7V31.7z M70,83.3c0,1.8-1.5,3.3-3.3,3.3
		h-3.3v-25H70V83.3z M63.3,28.4v-25h3.3c1.8,0,3.3,1.5,3.3,3.3v21.7H63.3z"/>
	<path d="M93.4,0h-6.7c-2.7,0-5,2.2-5,5v6.7v10v62.1l6.7,11.7v2.9c0,0.9,0.7,1.7,1.7,1.7s1.7-0.7,1.7-1.7v-2.9l6.7-11.7V21.7v-10V5
		C98.3,2.2,96.1,0,93.4,0z M85,15h10v3.3H85V15z M90,91.6L86.2,85h7.6L90,91.6z M95,81.7H85v-60h10V81.7z M85,11.7V5
		c0-0.9,0.7-1.6,1.6-1.6h6.7C94.3,3.3,95,4.1,95,5v6.7H85z"/>
</g>
</svg>
