<?xml version="1.0" encoding="utf-8"?>
<!-- Generator: Adobe Illustrator 21.0.2, SVG Export Plug-In . SVG Version: 6.00 Build 0)  -->
<svg version="1.1" id="Capa_1" xmlns="http://www.w3.org/2000/svg" xmlns:xlink="http://www.w3.org/1999/xlink" x="0px" y="0px"
	 viewBox="0 0 489.4 489.4" style="enable-background:new 0 0 489.4 489.4;" xml:space="preserve">
<g>
	<g>
		<path d="M163.3,261.3c7.3-8.3,6.2-21.8-2.1-29.1l-86.8-77h346.9c11.4,0,20.8-9.4,20.8-20.8s-9.4-20.8-20.8-20.8H74.4l86.8-77
			c8.3-8.3,9.4-20.8,2.1-29.1c-8.3-8.3-20.8-9.4-29.1-2.1L7.3,118.8c-10.5,8.5-8.9,23.5,0,30.2l126.9,114.4
			C142.4,270.7,156,269.7,163.3,261.3z"/>
		<path d="M354.7,484l126.9-112.4c10.1-10,10.7-22.5,0-31.2L354.7,226c-8.3-7.3-21.8-6.2-29.1,2.1c-10.2,12.8-3.2,25.7,2.1,29.1
			l86.8,77H68.6c-11.4,0-20.8,9.4-20.8,20.8s8.3,20.8,19.8,20.8h346.8l-86.8,77c-8.3,8.3-9.4,20.8-2.1,29.1
			C333.9,490.2,346.4,491.3,354.7,484z"/>
	</g>
</g>
</svg>
