<?xml version="1.0" encoding="utf-8"?>
<!-- Generator: Adobe Illustrator 21.0.2, SVG Export Plug-In . SVG Version: 6.00 Build 0)  -->
<svg version="1.1" id="Capa_1" xmlns="http://www.w3.org/2000/svg" xmlns:xlink="http://www.w3.org/1999/xlink" x="0px" y="0px"
	 viewBox="0 0 512 512" style="enable-background:new 0 0 512 512;" xml:space="preserve">
<style type="text/css">
	.st0{fill:#FFFFFF;}
</style>
<g>
	<g>
		<path class="st0" d="M170.8,273.4c7.6-8.7,6.5-22.8-2.2-30.4l-90.8-80.6h362.9c11.9,0,21.8-9.8,21.8-21.8
			c0-11.9-9.8-21.8-21.8-21.8H77.8l90.8-80.6c8.7-8.7,9.8-21.8,2.2-30.4c-8.7-8.7-21.8-9.8-30.4-2.2L7.6,124.3
			c-11,8.9-9.3,24.6,0,31.6l132.8,119.7C149,283.2,163.2,282.2,170.8,273.4z"/>
		<path class="st0" d="M371.1,506.4l132.8-117.6c10.6-10.5,11.2-23.5,0-32.6L371.1,236.4c-8.7-7.6-22.8-6.5-30.4,2.2
			c-10.7,13.4-3.3,26.9,2.2,30.4l90.8,80.6H71.8c-11.9,0-21.8,9.8-21.8,21.8s8.7,21.8,20.7,21.8h362.8l-90.8,80.6
			c-8.7,8.7-9.8,21.8-2.2,30.4C349.3,512.8,362.4,514,371.1,506.4z"/>
	</g>
</g>
</svg>
