<?xml version="1.0" encoding="utf-8"?>
<!-- Generator: Adobe Illustrator 21.0.2, SVG Export Plug-In . SVG Version: 6.00 Build 0)  -->
<svg version="1.1" id="Capa_1" xmlns="http://www.w3.org/2000/svg" xmlns:xlink="http://www.w3.org/1999/xlink" x="0px" y="0px"
	 viewBox="0 0 360 360" style="enable-background:new 0 0 360 360;" xml:space="preserve">
<g>
	<g>
		<g>
			<path d="M4.5,102.1c2.6,2.6,6.3,5,10.1,7.4c1.7,1.1,3.3,2.2,5.1,3.3l111.8,76.3l25.2,29.5l41.2,62.6c0.6,1,1.4,1.8,2.4,2.4
				c1.5,1,3.2,1.5,5,1.5c1.2,0,2.5-0.3,3.6-0.8c3.9-1.8,6-6.1,4.8-10.3l-10.5-37.6l72,35l13,8.9c3.6,2.5,7,4.9,10.9,4.2
				c2.4-0.4,4.4-1.9,6.1-4.4l51.2-66.4c2.4-3.6,6.9-15.3,0.1-22.1c-6.6-6.6-20.6-4.8-42,5.5c-13.8,6.6-28.9,13.7-44.7,20.9
				l-53.2-36.3l54.5-5.5c4.3-0.4,7.6-3.9,7.9-8.2c0.2-3-1.3-6-3.8-7.7c-1-0.7-2-1.1-3.1-1.3l-129-27.4L76.9,86.6
				c-8.4-5.7-27-11.8-45-11.8c-11.3,0-20.8,2.5-27.5,7.1l-0.8,0.7C-1.5,90.2-1.2,96.5,4.5,102.1z"/>
		</g>
	</g>
</g>
</svg>
