<?xml version="1.0" encoding="utf-8"?>
<!-- Generator: Adobe Illustrator 21.0.0, SVG Export Plug-In . SVG Version: 6.00 Build 0)  -->
<svg version="1.1" id="Layer_1" xmlns="http://www.w3.org/2000/svg" xmlns:xlink="http://www.w3.org/1999/xlink" x="0px" y="0px"
	 viewBox="0 0 456 127.5" style="enable-background:new 0 0 456 127.5;" xml:space="preserve">
<g>
	<g>
		<path d="M54.8,120.1c-1.4,0-2.8,0-4.2,0c-1.1-0.2-2.3-0.4-3.4-0.7c-5.2-1.2-9.3-3.8-12-8.6c-0.2-0.3-0.7-0.6-1.1-0.7
			c-1.2-0.3-2.5-0.4-3.7-0.8c-8.2-2.1-12.8-9.1-11.6-17.4c0.1-0.7-0.1-1.1-0.7-1.4c-2-1.3-3.6-3-4.9-5C8.7,78.4,9,71.3,13,64.1
			c0.4-0.6,0.4-1.1,0.1-1.8c-2.4-6.1-3.8-12.3-3-18.9c1.1-9.4,5.5-16.8,14.3-20.8c2.6-1.2,4.5-2.6,6.1-4.9c3.9-5.3,9.4-8.1,15.7-9.4
			c1.2-0.3,2.5-0.5,3.7-0.7c1.8,0,3.5,0,5.3,0c0.1,0.1,0.2,0.2,0.3,0.2c2.1,0.3,4,1,5.7,2.3c0.2,0.1,0.6,0,0.9-0.1
			c0.9-0.5,1.8-1.1,2.8-1.5c1-0.4,2-0.6,3-0.9c1.8,0,3.5,0,5.3,0c0.2,0.1,0.5,0.2,0.7,0.2c1.7,0.3,3.5,0.5,5.2,1
			c5.8,1.6,10.8,4.6,14.3,9.7c1.2,1.7,2.3,3.1,4.4,3.5c0.4,0.1,0.7,0.3,1.1,0.5c9.6,4.7,13.9,12.7,14.5,23c0.3,5.9-1,11.5-3.2,17
			c-0.2,0.4-0.1,1,0.1,1.4c0.6,1.4,1.4,2.7,1.9,4.1c3.1,8.3,0.4,17.4-6.8,22.5c-0.7,0.5-0.7,0.9-0.6,1.7c0.5,4.5-0.4,8.7-3.4,12.2
			c-2.7,3.1-6.2,4.8-10.2,5.5c-1.8,0.3-3.2,0.7-3.8,2.6c-0.1,0.4-0.5,0.7-0.7,1c-2.7,3.4-6.2,5.2-10.3,6.2c-1.1,0.3-2.3,0.5-3.4,0.7
			c-1.4,0-2.8,0-4.2,0c-1.5-0.5-3.1-1-4.6-1.6c-0.9-0.4-1.6-1.4-2.4-1.4c-0.8,0-1.6,1-2.5,1.4C57.8,119.2,56.3,119.6,54.8,120.1z
			 M79.8,108c-0.2-0.2-0.4-0.3-0.5-0.4c-4.9-3.7-6.5-8.7-6-14.6c0.2-2,2-3.4,4.2-3.5c1.9-0.1,3.8,1.2,4.2,3c0.2,1,0.3,2,0.4,3
			c0.2,3.1,2.1,5.6,4.8,5.8c2.9,0.3,5.5-0.5,7.8-2.4c1.1-0.9,1.6-2.1,1.7-3.4c0.1-1.2,0-2.3-0.1-3.5c0-0.6-0.2-1.1-0.3-1.7
			c-0.6-2.7,0.1-4.5,2.6-5.8c2.1-1.1,3.9-2.4,5.1-4.5c1.7-3,1.7-6.2,0.6-9.5c-0.2,0.1-0.3,0.1-0.3,0.1c-0.3,0.2-0.5,0.5-0.8,0.7
			c-5,4.1-10.7,6.4-17.3,5.6c-3.3-0.4-5.1-3.5-3.6-6.4c0.8-1.6,2.6-2.4,4.9-2.1c2.5,0.4,4.8-0.1,6.9-1.3c5.3-2.9,8.9-7.1,10.2-13.1
			c1.1-5.1,1.5-10.1-0.5-15.1c-2.1-5.2-5.8-8.7-11.4-9.7c-2.2-0.4-3.5-1.6-4.4-3.6c-0.6-1.4-1.5-2.8-2.5-3.9
			c-4.5-4.5-10.1-5.9-16.3-5.5c-1.1,0.1-1.8,0.6-2,1.7c-0.3,1.7-0.7,3.5-0.7,5.2c0,27.8,0,55.6,0,83.5c0,0.2,0,0.4,0,0.5
			c0.1,2.2,1.6,4,3.8,4c1.8,0,3.6-0.2,5.3-0.6C77,110.4,78.5,109.6,79.8,108z M20.2,57.1c4.8-2.5,9.6-3.3,14.5-2.7
			c2.4,0.2,4.8,0.7,7.1,1.4c2.5,0.8,3.3,3.9,1.9,6.1c-1.1,1.7-2.9,2.4-5.3,1.8c-2.6-0.7-5.3-1-7.9-0.8c-3.6,0.3-6.8,1.6-9.2,4.5
			c-3.1,3.8-3.6,9.5-1,13.4c1.2,1.8,3,3,5,4c2.3,1.2,3.1,3.1,2.5,5.6c-0.2,0.7-0.4,1.4-0.5,2.1c-0.5,3.9,0.2,7,5.1,8.4
			c1.6,0.5,3.3,0.7,5,0.8c2.8,0,4.3,1.5,4.9,3.8c0.6,2.2,2,3.7,4.1,4.6c2.2,1,4.4,1.5,6.8,1.4c2.6-0.1,4.2-1.7,4.2-4.4
			c0-28,0-55.9,0-83.9c0-1.6-0.3-3.2-0.7-4.8c-0.4-1.6-0.9-1.9-2.6-2c-2.7-0.2-5.4,0.1-8,0.9c-4.8,1.5-8.7,4.1-10.6,9.1
			c-0.7,1.8-2.2,2.7-4,3c-4.8,0.8-8.2,3.5-10.5,7.6c-2.3,4-2.7,8.3-2.2,12.7C19,52.1,19.7,54.5,20.2,57.1z"/>
		<path d="M93.8,55.3c-7.7-0.1-14.3-4.5-17.2-11.9c-0.7-1.7-1.3-3.5-1.6-5.3c-0.5-2.3,0.9-4.4,3-4.9c2.4-0.6,4.3,0.5,5.2,2.8
			c0.4,1.2,0.8,2.5,1.2,3.7c2,5.1,5.7,7.3,11.1,6.7c3.5-0.4,5.9,2.3,4.9,5.5c-0.4,1.4-1.3,2.4-2.7,2.7C96.4,55,95.1,55.1,93.8,55.3z
			"/>
		<path d="M44.5,98.4c-2.2,0-3.8-1.5-4.2-3.8c-0.3-1.5-0.5-3.1-1-4.6c-1.3-4.3-4.2-7.2-8.4-8.8c-1.3-0.5-2.5-1.1-3.1-2.4
			c-0.8-1.6-0.7-3.1,0.4-4.5c1.1-1.5,2.7-2,4.5-1.5c3,0.8,5.6,2.3,8,4.3c5.1,4.3,7.5,9.8,8.2,16.3C49,96.2,47.2,98.3,44.5,98.4z"/>
		<path d="M36.8,46.4c-1.9,0.1-3.6-0.4-4.6-2.2c-1.6-2.9,0.3-6.1,3.6-6.4c1-0.1,2.1-0.1,3-0.3c2.9-0.6,4.8-2.3,5.7-5.2
			c0.8-2.6,2.7-4,4.9-3.6c2.7,0.5,4.1,2.8,3.5,5.6c-1.5,6.2-7,11-13.4,11.8C38.6,46.2,37.7,46.3,36.8,46.4z"/>
	</g>
	<g>
		<path d="M150.3,26.7h8.4l26.8,40.1l26.8-40.1h8.4v73.6h-8.3V40.6L185.6,80h-0.4l-26.8-39.3v59.5h-8.1V26.7z"/>
		<path d="M236.8,73.1c0-15.3,12-28.4,28.4-28.4c16.3,0,28.3,12.8,28.3,28.4c0,15.3-12.1,28.4-28.5,28.4
			C248.7,101.5,236.8,88.7,236.8,73.1z M285.2,73.1c0-11.7-8.7-21.2-20.2-21.2c-11.8,0-19.9,9.6-19.9,21.2
			c0,11.7,8.6,21.1,20.1,21.1C277,94.2,285.2,84.8,285.2,73.1z"/>
		<path d="M302.8,95.1l36-42.4h-34.8v-6.8h45.8V51l-36.2,42.4h36.2v6.8h-47.1V95.1z"/>
		<path d="M423.1,93.6c-6.2,4.9-14.1,7.9-23.2,7.9c-22.4,0-37.4-17.6-37.4-38c0-20.3,15.2-38,37.6-38c22.4,0,37.4,17.6,37.4,38
			c0,9.2-3.2,18-8.8,24.7l9.8,8.1l-5.7,6.2L423.1,93.6z M417,88.2l-13.7-11.7l5.6-6.2l13.6,12.3c4-5.2,6.4-11.8,6.4-19.2
			c0-16.7-12.2-30.4-29-30.4c-16.8,0-28.8,13.5-28.8,30.4c0,16.7,12.2,30.4,29,30.4C406.6,93.8,412.5,91.7,417,88.2z"/>
	</g>
</g>
</svg>
