<?xml version="1.0" encoding="iso-8859-1"?>
<!-- Generator: Adobe Illustrator 19.1.0, SVG Export Plug-In . SVG Version: 6.00 Build 0)  -->
<svg version="1.1" id="Capa_1" xmlns="http://www.w3.org/2000/svg" xmlns:xlink="http://www.w3.org/1999/xlink" x="0px" y="0px"
	 viewBox="0 0 92 92" style="enable-background:new 0 0 92 92;" xml:space="preserve">
<g>
	<path d="M46,87.994c-0.512,0-1.023-0.195-1.413-0.585L8.463,51.333c-0.132-0.114-0.257-0.235-0.38-0.358
		C2.873,45.781,0,38.869,0,31.518c0-7.353,2.873-14.265,8.088-19.464C18.484,1.691,35.175,1.337,46.002,10.984
		c10.868-9.647,27.526-9.279,37.909,1.068C89.127,17.253,92,24.165,92,31.518c0,7.352-2.873,14.264-8.088,19.463
		c-0.009,0.009-0.019,0.018-0.028,0.027c-0.071,0.111-0.154,0.215-0.249,0.31L47.412,87.411C47.021,87.8,46.511,87.994,46,87.994z
		 M27.603,8.006c-6.047,0-12.089,2.294-16.69,6.881C6.455,19.33,4,25.236,4,31.518c0,6.281,2.455,12.187,6.913,16.629
		c0.059,0.061,0.111,0.116,0.17,0.164c0.051,0.042,0.101,0.087,0.147,0.134l34.771,34.725l34.5-34.376
		c0.11-0.182,0.249-0.346,0.416-0.482c0.059-0.048,0.111-0.104,0.165-0.158C85.545,43.704,88,37.799,88,31.518
		c0-6.281-2.455-12.188-6.913-16.632c-9.207-9.176-24.19-9.178-33.4,0.001c-0.085,0.086-0.145,0.145-0.204,0.21
		c-0.759,0.84-2.209,0.84-2.968,0c-0.059-0.065-0.119-0.124-0.178-0.184C39.718,10.308,33.657,8.006,27.603,8.006z"/>
</g>
<g>
</g>
<g>
</g>
<g>
</g>
<g>
</g>
<g>
</g>
<g>
</g>
<g>
</g>
<g>
</g>
<g>
</g>
<g>
</g>
<g>
</g>
<g>
</g>
<g>
</g>
<g>
</g>
<g>
</g>
</svg>
