<?xml version="1.0" encoding="utf-8"?>
<!-- Generator: Adobe Illustrator 21.0.2, SVG Export Plug-In . SVG Version: 6.00 Build 0)  -->
<svg version="1.1" id="Capa_1" xmlns="http://www.w3.org/2000/svg" xmlns:xlink="http://www.w3.org/1999/xlink" x="0px" y="0px"
	 viewBox="0 0 612 558" style="enable-background:new 0 0 612 558;" xml:space="preserve">
<style type="text/css">
	.st0{fill:#3949AB;}
</style>
<g>
	<g>
		<path class="st0" d="M588.6,86.1L213.8,6.8c-15.9-3.4-31.6,6.9-34.9,22.7l-7.1,45.8l432.5,91.5l7.1-45.8
			C614.7,105.2,604.5,89.4,588.6,86.1z"/>
		<path class="st0" d="M431,176.5c-4.4-15.8-20.9-25.1-36.6-20.7l-71.2,19.8L155.5,140L137,227.2l-115.3,32
			C6,263.6-3.3,280,1.1,295.8l65,234.1c4.4,15.8,20.9,25.1,36.6,20.7l372.6-103.4c15.8-4.4,25.1-20.8,20.7-36.6l-11.1-40.2l41.8,8.8
			c15.9,3.4,31.6-6.9,34.9-22.7L588,231.5l-150.5-31.9L431,176.5z M474,295.5l9.2-43.6c1.4-6.5,7.9-10.7,14.4-9.4l43.6,9.2
			c6.5,1.4,10.7,7.8,9.4,14.4l-9.2,43.6c-1.4,6.5-7.8,10.7-14.4,9.4l-43.6-9.2C476.9,308.4,472.7,302,474,295.5z M28.3,282.5
			l103.1-28.6l243.3-67.5l26.2-7.3c0.5-0.1,1-0.2,1.4-0.2c2.1,0,4.6,1.4,5.3,4l3.1,11.1l9.6,34.7L37.1,335.1l-12.7-45.8
			C23.6,286.4,25.4,283.3,28.3,282.5z M472.6,417c0.5,1.8,0,3.2-0.5,4.2c-0.5,0.9-1.5,2.1-3.3,2.6L96.2,527.2
			c-0.5,0.1-1,0.2-1.4,0.2c-2.1,0-4.6-1.4-5.3-4L51.5,386.9l383.2-106.3l23.4,84.2L472.6,417z"/>
		<path class="st0" d="M156.4,426.4c-1.8-6.4-8.5-10.2-14.9-8.4L97.9,430c-6.4,1.8-10.2,8.5-8.4,14.9l12.1,43.5
			c1.8,6.4,8.5,10.2,14.9,8.4l43.5-12.1c6.4-1.8,10.2-8.5,8.4-14.9L156.4,426.4z"/>
	</g>
</g>
</svg>
